<svg xmlns="http://www.w3.org/2000/svg" xmlns:xlink="http://www.w3.org/1999/xlink" version="1.1" x="0px" y="0px" viewBox="-91.583 0 402.667 215" enable-background="new -91.583 0 402.667 172" xml:space="preserve"><path d="M301.211,144.129C301.289,144.281,301.309,144.32,301.211,144.129L301.211,144.129z"/><path d="M300.774,143.265c0.228,0.45,0.366,0.723,0.438,0.864C301.109,143.926,300.914,143.541,300.774,143.265z"/><path d="M300.7,143.119c0.021,0.043,0.047,0.092,0.074,0.146C300.75,143.218,300.725,143.17,300.7,143.119z"/><path d="M289.993,121.991c1.412,0.004,2.824,0.008,4.262,0.008c4.596,0,7.396-5.056,5.209-8.994L289.1,95.009  c1.111-0.004,2.218-0.011,3.339-0.011c4.361,0,7.34-4.753,5.383-8.667l-32.266-65c-1.007-2.013-3.12-3.332-5.374-3.332  c-41.309,0-80.217,7.692-109.559,21.659c-19.974,9.508-34.112,21.282-41.577,34.309c-7.464-13.026-21.602-24.8-41.575-34.309  C38.131,25.69-0.776,17.998-42.083,17.998c-2.243,0-4.363,1.311-5.367,3.317l-32.491,65c-2.001,3.909,1.029,8.682,5.375,8.682  c1.727,0,3.439,0.007,5.142,0.018l-10.359,17.989c-2.178,3.94,0.606,8.994,5.209,8.994c1.438,0,2.85-0.004,4.261-0.008  l-10.623,20.962c-2.196,4.229,1.578,9.382,6.286,8.639l148.796-23.439c-0.23,23.337,16.44,23.846,35.02,23.846s35.02,0,35.02-23.847  l148.805,23.44c1.498,0.235,3.728,0.063,4.985-0.575c2.956-1.497,4.138-5.108,2.64-8.063L289.993,121.991z M-64.928,137.913  l7.197-14.202c0.297-0.587,0.485-1.199,0.578-1.816c22.464-0.265,41.271-0.988,56.99-1.595c20.86-0.805,37.105-1.428,51.531-0.707  L-64.928,137.913z M-64.183,109.961l8.483-14.73c42.396,1.041,76.579,5.581,102.231,12.187c-13.72-0.396-28.875,0.187-47.157,0.892  C-17.849,108.973-38.795,109.78-64.183,109.961z M103.167,120.643c-1.113-1.02-2.301-2.021-3.558-3.005  c-0.438-0.465-0.956-0.862-1.542-1.174C71.606,96.946,16.323,84.763-57.821,83.177c-0.752-0.159-1.519-0.172-2.26-0.043  c-1.598-0.03-3.203-0.055-4.818-0.074l26.502-53.02c38.168,0.438,73.813,7.647,100.709,20.451  c24.904,11.856,39.224,26.946,40.716,42.757c-0.061,0.914-0.103,1.83-0.103,2.751c0,0.58,0.087,1.139,0.24,1.669V120.643z   M115.167,120.223V96c0-0.921-0.042-1.837-0.103-2.751c1.493-15.811,15.813-30.901,40.718-42.757  c26.895-12.803,62.536-20.012,100.701-20.451l26.318,53.019c-1.086,0.013-2.164,0.03-3.242,0.048  c-0.604-0.084-1.22-0.074-1.831,0.031C197.887,84.63,139.612,98.331,115.167,120.223z M283.864,109.961  c-25.388-0.181-46.335-0.988-63.559-1.652c-19.211-0.74-34.967-1.344-49.235-0.821c26.041-6.736,60.911-11.341,104.286-12.301  L283.864,109.961z M167.296,119.645c14.679-0.804,31.197-0.167,52.547,0.655c15.719,0.606,34.526,1.33,56.991,1.595  c0.093,0.617,0.281,1.229,0.578,1.816l7.313,14.432L167.296,119.645z"/><path d="M300.616,142.953c0.032,0.062,0.055,0.108,0.084,0.166C300.65,143.021,300.616,142.953,300.616,142.953z"/><text x="-91.583" y="187" fill="#000000" font-size="5px" font-weight="bold" font-family="'Helvetica Neue', Helvetica, Arial-Unicode, Arial, Sans-serif">Created by corpus delicti</text><text x="-91.583" y="192" fill="#000000" font-size="5px" font-weight="bold" font-family="'Helvetica Neue', Helvetica, Arial-Unicode, Arial, Sans-serif">from the Noun Project</text></svg>